<svg width="53" height="35" viewBox="0 0 53 35" fill="none" xmlns="http://www.w3.org/2000/svg">
<path d="M28.1588 18.617C31.4341 18.617 34.1139 22.0596 34.1139 22.9203C34.1139 23.7809 31.4341 26.6498 28.1588 26.6498C24.8835 26.6498 22.5015 22.9203 22.5015 22.9203C22.5015 22.9203 24.8835 18.617 28.1588 18.617Z" fill="#FFFDFB"/>
<path d="M18.9285 19.4777L22.5015 22.9203M22.5015 22.9203L18.9285 26.3629M22.5015 22.9203C22.5015 22.9203 24.8835 26.6498 28.1588 26.6498C31.4341 26.6498 34.1139 23.7809 34.1139 22.9203C34.1139 22.0596 31.4341 18.617 28.1588 18.617C24.8835 18.617 22.5015 22.9203 22.5015 22.9203Z" stroke="#FFFDFB" stroke-width="2" stroke-linecap="round" stroke-linejoin="round"/>
<mask id="path-3-inside-1" fill="white">
<path d="M52.9845 33.2945L49.6578 10.8874C49.5486 10.1515 48.8936 9.60442 48.1209 9.60442H44.0462C43.3296 6.50892 40.5072 5.59213 40.1959 5.49252C38.6682 2.54449 35.5251 2.40752 35.1875 2.39624C33.323 0.459552 30.814 0.450213 29.4768 0.780971C28.2867 0.0992209 25.8768 -0.567743 23.523 0.780971C22.1854 0.450213 19.6759 0.459942 17.8119 2.39624C17.4779 2.40752 14.3303 2.54449 12.8035 5.49291C12.4869 5.59408 9.66771 6.51514 8.95321 9.60442H4.8789C4.10618 9.60442 3.45112 10.1515 3.34194 10.8874L0.0156993 33.2945C-0.0481892 33.7233 0.0848443 34.1575 0.379621 34.4848C0.674397 34.8121 1.10261 35 1.55266 35H51.4471C51.8972 35 52.325 34.8121 52.6201 34.4848C52.9149 34.1575 53.048 33.7233 52.9845 33.2945ZM13.5379 7.1035C14.1695 7.0319 14.6916 6.59685 14.8561 6.00577C15.1691 4.87964 17.1859 4.07726 18.2821 4.25587C18.9109 4.3586 19.5409 4.08076 19.8704 3.55583C20.4624 2.61375 22.0511 2.15614 23.0891 2.64566C23.6625 2.9161 24.3495 2.82116 24.8206 2.40635C25.6661 1.66195 27.3308 1.65922 28.1796 2.40635C28.6507 2.82116 29.3373 2.9161 29.911 2.64566C30.9345 2.16314 33.1244 2.60013 33.7248 3.55583C34.0548 4.08115 34.6848 4.35821 35.3135 4.25587C36.4292 4.07337 38.4318 4.8987 38.7395 6.00577C38.9037 6.59685 39.4261 7.0319 40.0573 7.1035C40.2078 7.12062 41.3315 8.46155 41.9554 9.60481H11.044C11.6141 8.55884 13.233 7.13813 13.5379 7.1035ZM1.55623 33.7328L5.03481 10.8716H47.965L51.4435 33.7328H1.55623Z"/>
<path d="M13.5379 7.1035C14.1695 7.0319 14.6916 6.59685 14.8561 6.00577C15.1691 4.87964 17.1859 4.07726 18.2821 4.25587C18.9109 4.3586 19.5409 4.08076 19.8704 3.55583C20.4624 2.61375 22.0511 2.15614 23.0891 2.64566C23.6625 2.9161 24.3495 2.82116 24.8206 2.40635C25.6661 1.66195 27.3308 1.65922 28.1796 2.40635C28.6507 2.82116 29.3373 2.9161 29.911 2.64566C30.9345 2.16314 33.1244 2.60013 33.7248 3.55583C34.0548 4.08115 34.6848 4.35821 35.3135 4.25587C36.4292 4.07337 38.4318 4.8987 38.7395 6.00577C38.9037 6.59685 39.4261 7.0319 40.0573 7.1035C40.2078 7.12062 41.3315 8.46155 41.9554 9.60481H11.044C11.6141 8.55884 13.233 7.13813 13.5379 7.1035Z"/>
</mask>
<path d="M52.9845 33.2945L49.6578 10.8874C49.5486 10.1515 48.8936 9.60442 48.1209 9.60442H44.0462C43.3296 6.50892 40.5072 5.59213 40.1959 5.49252C38.6682 2.54449 35.5251 2.40752 35.1875 2.39624C33.323 0.459552 30.814 0.450213 29.4768 0.780971C28.2867 0.0992209 25.8768 -0.567743 23.523 0.780971C22.1854 0.450213 19.6759 0.459942 17.8119 2.39624C17.4779 2.40752 14.3303 2.54449 12.8035 5.49291C12.4869 5.59408 9.66771 6.51514 8.95321 9.60442H4.8789C4.10618 9.60442 3.45112 10.1515 3.34194 10.8874L0.0156993 33.2945C-0.0481892 33.7233 0.0848443 34.1575 0.379621 34.4848C0.674397 34.8121 1.10261 35 1.55266 35H51.4471C51.8972 35 52.325 34.8121 52.6201 34.4848C52.9149 34.1575 53.048 33.7233 52.9845 33.2945ZM13.5379 7.1035C14.1695 7.0319 14.6916 6.59685 14.8561 6.00577C15.1691 4.87964 17.1859 4.07726 18.2821 4.25587C18.9109 4.3586 19.5409 4.08076 19.8704 3.55583C20.4624 2.61375 22.0511 2.15614 23.0891 2.64566C23.6625 2.9161 24.3495 2.82116 24.8206 2.40635C25.6661 1.66195 27.3308 1.65922 28.1796 2.40635C28.6507 2.82116 29.3373 2.9161 29.911 2.64566C30.9345 2.16314 33.1244 2.60013 33.7248 3.55583C34.0548 4.08115 34.6848 4.35821 35.3135 4.25587C36.4292 4.07337 38.4318 4.8987 38.7395 6.00577C38.9037 6.59685 39.4261 7.0319 40.0573 7.1035C40.2078 7.12062 41.3315 8.46155 41.9554 9.60481H11.044C11.6141 8.55884 13.233 7.13813 13.5379 7.1035ZM1.55623 33.7328L5.03481 10.8716H47.965L51.4435 33.7328H1.55623Z" fill="#FFFDFB"/>
<path d="M13.5379 7.1035C14.1695 7.0319 14.6916 6.59685 14.8561 6.00577C15.1691 4.87964 17.1859 4.07726 18.2821 4.25587C18.9109 4.3586 19.5409 4.08076 19.8704 3.55583C20.4624 2.61375 22.0511 2.15614 23.0891 2.64566C23.6625 2.9161 24.3495 2.82116 24.8206 2.40635C25.6661 1.66195 27.3308 1.65922 28.1796 2.40635C28.6507 2.82116 29.3373 2.9161 29.911 2.64566C30.9345 2.16314 33.1244 2.60013 33.7248 3.55583C34.0548 4.08115 34.6848 4.35821 35.3135 4.25587C36.4292 4.07337 38.4318 4.8987 38.7395 6.00577C38.9037 6.59685 39.4261 7.0319 40.0573 7.1035C40.2078 7.12062 41.3315 8.46155 41.9554 9.60481H11.044C11.6141 8.55884 13.233 7.13813 13.5379 7.1035Z" fill="#FFFDFB"/>
<path d="M52.9845 33.2945L49.6578 10.8874C49.5486 10.1515 48.8936 9.60442 48.1209 9.60442H44.0462C43.3296 6.50892 40.5072 5.59213 40.1959 5.49252C38.6682 2.54449 35.5251 2.40752 35.1875 2.39624C33.323 0.459552 30.814 0.450213 29.4768 0.780971C28.2867 0.0992209 25.8768 -0.567743 23.523 0.780971C22.1854 0.450213 19.6759 0.459942 17.8119 2.39624C17.4779 2.40752 14.3303 2.54449 12.8035 5.49291C12.4869 5.59408 9.66771 6.51514 8.95321 9.60442H4.8789C4.10618 9.60442 3.45112 10.1515 3.34194 10.8874L0.0156993 33.2945C-0.0481892 33.7233 0.0848443 34.1575 0.379621 34.4848C0.674397 34.8121 1.10261 35 1.55266 35H51.4471C51.8972 35 52.325 34.8121 52.6201 34.4848C52.9149 34.1575 53.048 33.7233 52.9845 33.2945ZM13.5379 7.1035C14.1695 7.0319 14.6916 6.59685 14.8561 6.00577C15.1691 4.87964 17.1859 4.07726 18.2821 4.25587C18.9109 4.3586 19.5409 4.08076 19.8704 3.55583C20.4624 2.61375 22.0511 2.15614 23.0891 2.64566C23.6625 2.9161 24.3495 2.82116 24.8206 2.40635C25.6661 1.66195 27.3308 1.65922 28.1796 2.40635C28.6507 2.82116 29.3373 2.9161 29.911 2.64566C30.9345 2.16314 33.1244 2.60013 33.7248 3.55583C34.0548 4.08115 34.6848 4.35821 35.3135 4.25587C36.4292 4.07337 38.4318 4.8987 38.7395 6.00577C38.9037 6.59685 39.4261 7.0319 40.0573 7.1035C40.2078 7.12062 41.3315 8.46155 41.9554 9.60481H11.044C11.6141 8.55884 13.233 7.13813 13.5379 7.1035ZM1.55623 33.7328L5.03481 10.8716H47.965L51.4435 33.7328H1.55623Z" stroke="#FFFDFB" stroke-width="2" mask="url(#path-3-inside-1)"/>
<path d="M13.5379 7.1035C14.1695 7.0319 14.6916 6.59685 14.8561 6.00577C15.1691 4.87964 17.1859 4.07726 18.2821 4.25587C18.9109 4.3586 19.5409 4.08076 19.8704 3.55583C20.4624 2.61375 22.0511 2.15614 23.0891 2.64566C23.6625 2.9161 24.3495 2.82116 24.8206 2.40635C25.6661 1.66195 27.3308 1.65922 28.1796 2.40635C28.6507 2.82116 29.3373 2.9161 29.911 2.64566C30.9345 2.16314 33.1244 2.60013 33.7248 3.55583C34.0548 4.08115 34.6848 4.35821 35.3135 4.25587C36.4292 4.07337 38.4318 4.8987 38.7395 6.00577C38.9037 6.59685 39.4261 7.0319 40.0573 7.1035C40.2078 7.12062 41.3315 8.46155 41.9554 9.60481H11.044C11.6141 8.55884 13.233 7.13813 13.5379 7.1035Z" stroke="#FFFDFB" stroke-width="2" mask="url(#path-3-inside-1)"/>
</svg>
